<svg xmlns="http://www.w3.org/2000/svg" width="687" height="250" viewBox="0 0 687 250" fill="none"><g clip-path="url(#clip0_293_5666)"><path d="M686.593 183.902L681.504 198.708H614.782V133.128H632.881V183.902H686.593Z" fill="#231F20"></path><path d="M268.165 181.205C266.136 179.419 265.079 177.051 265.079 174.087V167.953V164.71V158.041C265.079 158.041 265.237 147.862 276.327 147.741H305.649C314.881 147.729 323.092 141.862 326.08 133.128H286.773C286.324 133.128 285.959 133.201 285.546 133.226V133.141H273.509C251.378 133.141 246.944 147.923 246.944 157.968V159.001H246.932V166.92V170.054V176.881C246.932 182.638 249.131 187.679 253.576 192.088C258.131 196.522 264.059 198.708 271.456 198.708H300.669C309.973 198.708 318.221 192.732 321.124 183.902H276.072C272.877 183.853 270.254 182.954 268.14 181.193L268.165 181.205Z" fill="#231F20"></path><path d="M587.452 198.721H608.369L568.807 133.141H548.789L509.203 198.721H529.865L536.849 186.902H582.861C590.914 186.902 584.974 180.367 584.962 172.314H545.461L558.531 150.182L587.452 198.721Z" fill="#231F20"></path><path d="M329.469 154.956C329.469 149.028 331.668 143.939 336.077 139.627C340.535 135.315 346.511 133.128 354.006 133.128H394.308C401.912 133.128 407.888 135.315 412.237 139.627C416.634 143.89 418.845 148.931 418.845 154.798V177.039C418.845 182.699 416.634 187.74 412.176 192.113C407.718 196.534 401.791 198.708 394.308 198.708H354.006C346.62 198.708 340.693 196.522 336.126 192.113C331.668 187.691 329.469 182.65 329.469 176.893V154.968V154.956ZM389.68 183.902C393.033 183.853 395.705 182.918 397.649 181.193C399.689 179.48 400.734 177.087 400.746 174.075V157.337C400.697 154.276 399.653 151.883 397.661 150.17C395.62 148.348 392.996 147.461 389.693 147.461H358.658C355.415 147.461 352.791 148.348 350.738 150.17C348.795 151.931 347.75 154.324 347.641 157.337V174.221C347.641 177.136 348.685 179.468 350.726 181.181C352.876 183.003 355.5 183.889 358.646 183.889H389.68V183.902Z" fill="#231F20"></path><path d="M484.121 173.492C492.818 173.492 507.758 173.31 507.758 152.855C507.758 135.777 493.34 133.153 484.133 133.153H426.958C426.958 141.206 433.481 147.741 441.534 147.741H482.687C484.91 147.741 489.441 147.875 489.441 153.401C489.441 158.928 485.165 158.94 482.42 158.94L426.946 158.916L462.548 189.222C469.751 195.356 478.898 198.721 488.36 198.721H504.066L470.601 173.492H484.121Z" fill="#F1802E"></path><path d="M499.668 78.5049H514.548V72.711H506.3V53.7014H499.656V78.5049H499.668ZM486.222 78.5049V70.3181H489.015C491.299 70.3181 493.169 70.2088 494.834 69.2127C497.008 67.8887 498.21 65.4351 498.21 62.1312C498.21 58.8273 496.947 56.3737 494.809 54.989C492.902 53.7379 490.485 53.7014 487.424 53.7014H480.002V78.5049H486.234H486.222ZM486.222 64.8764V59.046H487.546C490.242 59.046 491.773 59.5318 491.773 61.9247C491.773 64.3176 490.303 64.8764 487.485 64.8764H486.222ZM463.75 69.2492L466.204 61.0623C466.301 60.6858 466.617 59.5683 467.054 57.7341C467.491 59.5683 467.771 60.6858 467.868 61.0623L470.358 69.2492H463.75ZM454.446 78.5049H461.054L462.317 74.0593H471.755L472.982 78.5049H479.589L471.172 53.7014H462.863L454.446 78.5049Z" fill="#01A6B3"></path><path d="M644.881 66.1517C644.881 62.6413 643.582 59.4224 641.104 56.9566C638.65 54.5273 635.286 53.1426 631.872 53.1426C628.459 53.1426 625.131 54.5273 622.677 56.9566C620.187 59.4224 618.863 62.617 618.863 66.1517C618.863 70.1358 620.527 73.6826 623.6 76.1848C625.945 78.0919 628.909 79.1729 631.872 79.1729C635.273 79.1729 638.614 77.8125 641.104 75.3467C643.558 72.9174 644.881 69.6864 644.881 66.1517ZM631.872 73.4397C627.985 73.4397 625.508 70.2451 625.508 66.1517C625.508 62.0582 628.131 58.8637 631.872 58.8637C635.614 58.8637 638.237 62.1311 638.237 66.1517C638.237 70.1722 635.65 73.4397 631.872 73.4397ZM604.324 78.5048H619.203V72.7109H610.956V53.7013H604.312V78.5048H604.324ZM588.12 78.5048H603V72.7109H594.752V53.7013H588.108V78.5048H588.12ZM585.885 66.1517C585.885 62.6413 584.585 59.4224 582.107 56.9566C579.654 54.5273 576.289 53.1426 572.876 53.1426C569.463 53.1426 566.135 54.5273 563.681 56.9566C561.191 59.4224 559.867 62.617 559.867 66.1517C559.867 70.1358 561.531 73.6826 564.604 76.1848C566.948 78.0919 569.912 79.1729 572.876 79.1729C576.277 79.1729 579.617 77.8125 582.107 75.3467C584.561 72.9174 585.885 69.6864 585.885 66.1517ZM572.876 73.4397C568.989 73.4397 566.511 70.2451 566.511 66.1517C566.511 56.4586 579.253 56.5315 579.253 66.1517C579.253 70.2087 576.666 73.4397 572.888 73.4397H572.876ZM547.453 78.5048V70.318H550.247C552.53 70.318 554.401 70.2087 556.065 69.2126C558.239 67.8886 559.442 65.435 559.442 62.1311C559.442 58.8272 558.178 56.3736 556.041 54.9889C554.134 53.7378 551.716 53.7013 548.655 53.7013H541.234V78.5048H547.465H547.453ZM547.453 64.8763V59.0459H548.777C551.474 59.0459 553.004 59.5317 553.004 61.9246C553.004 64.3175 551.534 64.8763 548.716 64.8763H547.453ZM524.982 69.2491L527.435 61.0622C527.532 60.6857 527.848 59.5682 528.285 57.734C528.723 59.5682 529.002 60.6857 529.099 61.0622L531.589 69.2491H524.982ZM515.677 78.5048H522.285L523.548 74.0592H532.986L534.213 78.5048H540.821L532.403 53.7013H524.095L515.677 78.5048Z" fill="#F1802E"></path><path d="M641.008 50.1181H641.651C641.955 50.1181 642.174 50.0695 642.283 49.9845C642.392 49.8873 642.453 49.7658 642.453 49.6201C642.453 49.5229 642.429 49.4379 642.368 49.3528C642.319 49.28 642.234 49.2192 642.149 49.1828C642.052 49.1464 641.87 49.1221 641.615 49.1221H641.008V50.1181ZM640.473 51.9887V48.6726H641.603C641.991 48.6726 642.271 48.6969 642.441 48.7577C642.611 48.8184 642.757 48.9277 642.854 49.0735C642.951 49.2314 643.012 49.3893 643.012 49.5593C643.012 49.8023 642.927 50.0088 642.757 50.191C642.587 50.3732 642.356 50.4703 642.076 50.4946C642.198 50.5432 642.283 50.604 642.356 50.6647C642.489 50.7983 642.647 51.0169 642.842 51.3206L643.242 51.9644H642.599L642.307 51.4421C642.076 51.0291 641.894 50.774 641.748 50.6768C641.651 50.604 641.506 50.5675 641.323 50.5675H641.008V51.9765H640.473V51.9887ZM641.821 47.713C641.396 47.713 640.971 47.8224 640.57 48.041C640.169 48.2596 639.841 48.5755 639.611 48.9884C639.38 49.4014 639.271 49.8266 639.271 50.276C639.271 50.7254 639.38 51.1384 639.611 51.5514C639.841 51.9522 640.157 52.2802 640.558 52.4988C640.959 52.7296 641.384 52.8389 641.833 52.8389C642.283 52.8389 642.696 52.7296 643.109 52.4988C643.51 52.268 643.826 51.9522 644.056 51.5514C644.275 51.1506 644.396 50.7254 644.396 50.276C644.396 49.8266 644.287 49.4014 644.056 48.9884C643.826 48.5755 643.51 48.2596 643.097 48.041C642.684 47.8224 642.271 47.713 641.846 47.713H641.821ZM641.821 47.2029C642.331 47.2029 642.842 47.3365 643.328 47.6037C643.813 47.8709 644.202 48.2475 644.469 48.7455C644.737 49.2435 644.882 49.7537 644.882 50.2881C644.882 50.8226 644.749 51.3328 644.481 51.8186C644.214 52.3045 643.838 52.6932 643.352 52.9604C642.866 53.2276 642.356 53.3612 641.833 53.3612C641.311 53.3612 640.801 53.2276 640.315 52.9604C639.829 52.6932 639.453 52.3045 639.186 51.8186C638.918 51.3328 638.785 50.8226 638.785 50.2881C638.785 49.7537 638.918 49.2314 639.198 48.7455C639.477 48.2475 639.854 47.8709 640.339 47.6037C640.825 47.3365 641.335 47.2029 641.846 47.2029H641.821Z" fill="#606161"></path><path fill-rule="evenodd" clip-rule="evenodd" d="M511.414 51.6972C504.272 39.4291 493.157 30.5741 478.12 30.5741C458.612 30.5741 442.773 46.0976 442.773 65.2043C442.773 84.311 458.6 99.8224 478.12 99.8224C489.222 99.8224 499.122 94.8179 505.608 86.959C507.843 84.9184 509.762 82.5619 511.268 80.0111C504.697 98.8385 486.125 111.034 465.876 109.892C442.676 108.592 424.176 90.1293 423.338 67.245C423.302 66.176 423.302 65.095 423.338 64.0018C424.152 42.0163 441.328 24.0878 463.264 21.6099C484.509 19.2291 504.66 31.7038 511.402 51.6851" fill="#01A6B3"></path><path fill-rule="evenodd" clip-rule="evenodd" d="M477.926 30.5741C491.045 30.149 502.074 37.8257 508.803 47.628C502.523 40.6315 492.818 35.6393 482.299 35.6393C464.407 35.6393 449.904 49.3286 449.904 66.1882C449.904 83.0478 464.711 95.5831 482.615 95.5831C491.543 95.5831 499.912 92.3157 505.754 86.8254C498.794 95.1216 489.186 99.8102 478.157 99.8102C458.759 99.8102 443.077 84.6268 442.713 65.6537C442.713 46.1583 458.528 30.5619 477.926 30.5619" fill="#F1802E"></path><path d="M257.026 213.394H250.904V211.802H264.994V213.394H258.873V229.221H257.026V213.394Z" fill="#183C67"></path><path d="M281.818 229.221L277.834 223.621C277.384 223.67 276.935 223.694 276.437 223.694H271.76V229.221H269.914V211.802H276.437C280.87 211.802 283.555 214.037 283.555 217.779C283.555 220.512 282.109 222.431 279.571 223.257L283.822 229.233H281.806L281.818 229.221ZM281.721 217.779C281.721 214.997 279.874 213.394 276.388 213.394H271.76V222.127H276.388C279.874 222.127 281.721 220.512 281.721 217.767V217.779Z" fill="#183C67"></path><path d="M289.762 221.788V211.803H291.609V221.715C291.609 225.845 293.552 227.739 296.941 227.739C300.33 227.739 302.298 225.845 302.298 221.715V211.803H304.095V221.788C304.095 226.792 301.411 229.379 296.953 229.379C292.495 229.379 289.787 226.792 289.787 221.788H289.762Z" fill="#183C67"></path><path d="M323.943 227.63V229.221H311.626V211.802H323.578V213.394H313.472V219.589H322.485V221.155H313.472V227.63H323.955H323.943Z" fill="#183C67"></path><path d="M337.231 220.512C337.231 215.41 341.118 211.657 346.365 211.657C348.904 211.657 351.2 212.507 352.742 214.196L351.576 215.362C350.155 213.916 348.418 213.297 346.426 213.297C342.223 213.297 339.053 216.382 339.053 220.512C339.053 224.642 342.211 227.727 346.426 227.727C348.418 227.727 350.155 227.108 351.576 225.638L352.742 226.804C351.2 228.492 348.904 229.367 346.341 229.367C341.118 229.367 337.231 225.614 337.231 220.5V220.512Z" fill="#183C67"></path><path d="M356.751 220.512C356.751 215.434 360.638 211.657 365.91 211.657C371.181 211.657 375.044 215.41 375.044 220.512C375.044 225.613 371.133 229.379 365.91 229.379C360.687 229.379 356.751 225.589 356.751 220.512ZM373.21 220.512C373.21 216.357 370.1 213.297 365.922 213.297C361.743 213.297 358.585 216.357 358.585 220.512C358.585 224.666 361.719 227.727 365.922 227.727C370.124 227.727 373.21 224.666 373.21 220.512Z" fill="#183C67"></path><path d="M381.177 211.802H383.024V227.63H392.777V229.221H381.177V211.802Z" fill="#183C67"></path><path d="M395.936 220.512C395.936 215.435 399.823 211.657 405.095 211.657C410.366 211.657 414.229 215.41 414.229 220.512C414.229 225.614 410.318 229.379 405.095 229.379C399.872 229.379 395.936 225.589 395.936 220.512ZM412.383 220.512C412.383 216.358 409.273 213.297 405.095 213.297C400.916 213.297 397.758 216.358 397.758 220.512C397.758 224.666 400.892 227.727 405.095 227.727C409.297 227.727 412.383 224.666 412.383 220.512Z" fill="#183C67"></path><path d="M420.205 221.787V211.802H422.051V221.714C422.051 225.844 423.994 227.739 427.383 227.739C430.772 227.739 432.74 225.844 432.74 221.714V211.802H434.538V221.787C434.538 226.791 431.853 229.379 427.395 229.379C422.938 229.379 420.229 226.791 420.229 221.787H420.205Z" fill="#183C67"></path><path d="M453.961 229.221L449.977 223.622C449.527 223.67 449.078 223.695 448.58 223.695H443.903V229.221H442.057V211.803H448.58C453.013 211.803 455.698 214.038 455.698 217.779C455.698 220.512 454.252 222.431 451.714 223.257L455.965 229.233H453.949L453.961 229.221ZM453.864 217.779C453.864 214.998 452.017 213.394 448.531 213.394H443.903V222.128H448.531C452.017 222.128 453.864 220.512 453.864 217.767V217.779Z" fill="#183C67"></path><path d="M460.386 227.107L461.102 225.686C462.341 226.901 464.564 227.8 466.848 227.8C470.103 227.8 471.524 226.427 471.524 224.714C471.524 219.941 460.799 222.868 460.799 216.43C460.799 213.867 462.791 211.657 467.224 211.657C469.192 211.657 471.233 212.228 472.63 213.199L472.01 214.669C470.516 213.697 468.779 213.224 467.236 213.224C464.054 213.224 462.633 214.645 462.633 216.382C462.633 221.155 473.358 218.277 473.358 224.617C473.358 227.18 471.318 229.367 466.86 229.367C464.248 229.367 461.685 228.443 460.386 227.095V227.107Z" fill="#183C67"></path><path d="M486.319 220.512C486.319 215.434 490.206 211.657 495.477 211.657C500.749 211.657 504.612 215.41 504.612 220.512C504.612 225.613 500.701 229.379 495.477 229.379C490.254 229.379 486.319 225.589 486.319 220.512ZM502.778 220.512C502.778 216.357 499.668 213.297 495.49 213.297C491.311 213.297 488.153 216.357 488.153 220.512C488.153 224.666 491.287 227.727 495.49 227.727C499.692 227.727 502.778 224.666 502.778 220.512Z" fill="#183C67"></path><path d="M512.581 213.394V220.244H521.594V221.836H512.581V229.233H510.734V211.815H522.687V213.406H512.581V213.394Z" fill="#183C67"></path><path d="M535.331 227.107L536.048 225.686C537.287 226.901 539.51 227.8 541.793 227.8C545.048 227.8 546.47 226.427 546.47 224.714C546.47 219.941 535.744 222.868 535.744 216.43C535.744 213.867 537.736 211.657 542.17 211.657C544.137 211.657 546.178 212.228 547.575 213.199L546.955 214.669C545.461 213.697 543.724 213.224 542.182 213.224C538.999 213.224 537.578 214.645 537.578 216.382C537.578 221.155 548.304 218.277 548.304 224.617C548.304 227.18 546.263 229.367 541.805 229.367C539.194 229.367 536.631 228.443 535.331 227.095V227.107Z" fill="#183C67"></path><path d="M557.438 213.394H551.316V211.802H565.406V213.394H559.284V229.221H557.438V213.394Z" fill="#183C67"></path><path d="M582.23 229.221L578.246 223.622C577.796 223.67 577.347 223.695 576.849 223.695H572.172V229.221H570.326V211.803H576.849C581.282 211.803 583.967 214.038 583.967 217.779C583.967 220.512 582.521 222.431 579.983 223.257L584.234 229.233H582.218L582.23 229.221ZM582.133 217.779C582.133 214.998 580.286 213.394 576.8 213.394H572.172V222.128H576.8C580.286 222.128 582.133 220.512 582.133 217.767V217.779Z" fill="#183C67"></path><path d="M602.648 227.63V229.221H590.331V211.802H602.283V213.394H592.177V219.589H601.19V221.155H592.177V227.63H602.66H602.648Z" fill="#183C67"></path><path d="M623.528 211.802V229.221H622.009L610.81 215.082V229.221H608.964V211.802H610.482L621.706 225.941V211.802H623.528Z" fill="#183C67"></path><path d="M643.473 220.512H645.234V227.156C643.594 228.626 641.25 229.367 638.833 229.367C633.537 229.367 629.65 225.613 629.65 220.5C629.65 215.386 633.537 211.645 638.857 211.645C641.493 211.645 643.789 212.495 645.331 214.159L644.19 215.325C642.72 213.88 640.983 213.285 638.942 213.285C634.642 213.285 631.472 216.346 631.472 220.5C631.472 224.654 634.63 227.715 638.918 227.715C640.582 227.715 642.125 227.338 643.473 226.367V220.488V220.512Z" fill="#183C67"></path><path d="M655.814 213.394H649.692V211.803H663.783V213.394H657.661V229.221H655.814V213.394Z" fill="#183C67"></path><path d="M683.277 211.802V229.221H681.455V221.18H670.547V229.221H668.701V211.802H670.547V219.564H681.455V211.802H683.277Z" fill="#183C67"></path><path d="M59.0232 150.924L0.791992 198.952H101.634L158.662 152.126L59.0232 150.924Z" fill="#183C67"></path><path d="M51.8203 145.822L110.343 98.0974L224.692 97.8059L166.764 146.429L51.8203 145.822Z" fill="#0090BA"></path><path d="M99.5322 91.7934L164.068 38.0686L297.329 38.9796L232.198 91.5019L99.5322 91.7934Z" fill="#00A5E0"></path><path d="M380.764 117.909L381.663 125.719L355.852 125.415L294.924 68.9941L313.836 57.8799L380.764 117.909Z" fill="#BEBDBF"></path><path d="M111.242 199.546L306.633 38.9795L355.56 83.9951L356.459 66.5889H379.562V107.705L401.778 125.415H369.662L305.127 67.1841L142.459 199.546H111.242Z" fill="#231F20"></path></g><defs><clipPath id="clip0_293_5666"><rect width="686" height="250" fill="white" transform="translate(0.919922)"></rect></clipPath></defs></svg>