<svg xmlns="http://www.w3.org/2000/svg" width="687" height="250" viewBox="0 0 687 250" fill="none"><path d="M102.644 173.098L126.727 204.508H101.936L83.1431 175.024H82.9439V204.508H63V127.876H92.7719C100.763 127.876 107.204 129.846 112.074 133.764C116.944 137.704 119.401 143.592 119.401 151.45C119.401 156.939 117.94 161.676 114.974 165.683C112.03 169.689 107.912 172.146 102.622 173.098M82.9217 143.127V162.23H84.8475C94.0558 162.23 98.6599 159.042 98.6599 152.667C98.6599 146.292 94.0558 143.105 84.8475 143.105H82.9217V143.127Z" fill="#231F20"></path><path d="M189.082 152.357V204.508H170.577V198.708H170.377C168.806 201.21 166.615 203.091 163.781 204.353C160.926 205.615 157.893 206.234 154.639 206.234C147.047 206.234 140.76 203.512 135.78 198.044C130.8 192.599 128.298 186.047 128.298 178.366C128.298 170.685 130.755 164.177 135.669 158.754C140.583 153.331 146.826 150.631 154.418 150.631C161.324 150.631 166.725 152.911 170.577 157.448V152.357H189.082ZM167.987 170.11C165.862 167.852 162.962 166.701 159.288 166.701C155.613 166.701 152.736 167.83 150.589 170.11C148.464 172.39 147.379 175.179 147.379 178.499C147.379 181.819 148.441 184.675 150.589 186.888C152.714 189.08 155.613 190.186 159.288 190.186C162.962 190.186 165.84 189.08 167.987 186.888C170.112 184.697 171.196 181.886 171.196 178.499C171.196 175.112 170.134 172.39 167.987 170.11Z" fill="#231F20"></path><path d="M219.871 120.15V171.172L239.084 152.379H264.385L238.265 176.463L266.023 204.508H240.102L219.871 183.258V204.508H201.366V120.15H219.871Z" fill="#231F20"></path><path d="M311.954 153.995L305.756 165.794C302.569 164.111 299.248 163.248 295.795 163.248C294.445 163.248 293.139 163.558 291.877 164.156C290.616 164.753 289.996 165.639 289.996 166.79C289.996 167.277 290.106 167.697 290.306 168.118C290.505 168.516 290.815 168.87 291.213 169.18C291.612 169.49 292.032 169.734 292.431 169.933C292.829 170.132 293.36 170.331 294.002 170.486C294.644 170.663 295.153 170.774 295.53 170.84C295.906 170.907 296.415 170.995 297.057 171.084C297.699 171.195 298.119 171.261 298.319 171.327C308.412 173.364 313.459 178.499 313.459 186.778C313.459 193.153 311.046 197.978 306.199 201.254C301.351 204.53 295.574 206.19 288.867 206.19C281.341 206.19 274.324 204.198 267.816 200.192L274.523 187.287C276.56 188.704 278.95 189.943 281.739 190.983C284.506 192.046 286.985 192.555 289.155 192.555C290.571 192.555 291.899 192.223 293.117 191.537C294.334 190.873 294.954 189.877 294.954 188.593C294.954 187.84 294.755 187.176 294.401 186.601C294.024 186.025 293.405 185.56 292.519 185.184C291.634 184.808 290.815 184.52 290.04 184.321C289.265 184.122 288.158 183.856 286.742 183.546C285.325 183.236 284.196 182.993 283.377 182.793C279.858 181.842 277.047 180.381 274.944 178.366C272.841 176.374 271.801 173.275 271.801 169.07C271.801 164.864 272.952 161.521 275.254 158.644C277.556 155.766 280.389 153.708 283.731 152.446C287.074 151.184 290.77 150.564 294.755 150.564C301.263 150.564 306.973 151.693 311.932 153.907" fill="#231F20"></path><path d="M323.442 120.15H341.947V158.976H342.146C346.352 153.42 351.908 150.631 358.814 150.631C365.256 150.631 370.125 152.601 373.446 156.519C376.766 160.459 378.426 165.793 378.426 172.589V204.508H359.921V177.768C359.921 173.983 359.368 170.951 358.239 168.715C357.11 166.479 354.896 165.351 351.576 165.351C348.256 165.351 345.732 166.546 344.205 168.914C342.678 171.283 341.925 174.227 341.925 177.746V204.486H323.42V120.128L323.442 120.15Z" fill="#231F20"></path><path d="M447.644 152.357V204.508H429.139V198.708H428.94C427.39 201.21 425.177 203.091 422.343 204.353C419.488 205.615 416.455 206.234 413.201 206.234C405.609 206.234 399.323 203.512 394.342 198.044C389.362 192.599 386.86 186.047 386.86 178.366C386.86 170.685 389.317 164.177 394.231 158.754C399.145 153.331 405.388 150.631 412.98 150.631C419.886 150.631 425.287 152.911 429.139 157.448V152.357H447.644ZM426.549 170.11C424.424 167.852 421.524 166.701 417.85 166.701C414.175 166.701 411.298 167.83 409.151 170.11C407.026 172.39 405.941 175.179 405.941 178.499C405.941 181.819 407.003 184.675 409.151 186.888C411.298 189.08 414.175 190.186 417.85 190.186C421.524 190.186 424.402 189.08 426.549 186.888C428.674 184.697 429.759 181.886 429.759 178.499C429.759 175.112 428.696 172.39 426.549 170.11Z" fill="#231F20"></path><path d="M478.434 120.15V171.172L497.647 152.379H522.948L496.828 176.462L524.586 204.508H498.666L478.434 183.258V204.508H459.951V120.15H478.434Z" fill="#231F20"></path><path d="M69.9941 236.361C68.7545 236.361 67.5814 236.206 66.4303 235.874C65.2793 235.542 64.3717 235.121 63.6855 234.59L64.903 231.889C65.5449 232.354 66.3418 232.753 67.2493 233.04C68.1569 233.35 69.0866 233.483 70.0162 233.483C70.7246 233.483 71.3001 233.417 71.7207 233.262C72.1634 233.107 72.4733 232.93 72.6725 232.686C72.8717 232.443 72.9824 232.155 72.9824 231.845C72.9824 231.447 72.8274 231.115 72.4954 230.871C72.1634 230.628 71.7428 230.428 71.2115 230.273C70.6803 230.119 70.0826 229.964 69.4629 229.831C68.8209 229.698 68.2011 229.521 67.5592 229.322C66.9173 229.122 66.3418 228.857 65.7884 228.525C65.2572 228.193 64.8366 227.75 64.5046 227.219C64.1947 226.688 64.0397 226.001 64.0397 225.204C64.0397 224.319 64.2832 223.522 64.748 222.792C65.2129 222.061 65.9433 221.486 66.8952 221.043C67.847 220.6 69.0644 220.401 70.5253 220.401C71.4993 220.401 72.4511 220.512 73.4029 220.755C74.3547 220.999 75.1738 221.331 75.8821 221.774L74.7532 224.452C74.067 224.053 73.3587 223.766 72.6061 223.566C71.8756 223.367 71.1673 223.257 70.4811 223.257C69.7949 223.257 69.2194 223.323 68.7767 223.478C68.3561 223.633 68.0462 223.832 67.847 224.098C67.6478 224.363 67.5592 224.651 67.5592 224.983C67.5592 225.382 67.7142 225.736 68.0462 225.979C68.3782 226.223 68.7988 226.422 69.33 226.555C69.8613 226.688 70.4589 226.842 71.1009 226.975C71.7428 227.108 72.3847 227.285 73.0266 227.484C73.6464 227.684 74.2441 227.949 74.7753 228.259C75.3066 228.569 75.7271 228.99 76.0592 229.543C76.3912 230.074 76.5461 230.738 76.5461 231.535C76.5461 232.398 76.3027 233.195 75.8378 233.926C75.3508 234.656 74.6425 235.232 73.6686 235.674C72.6946 236.117 71.4772 236.339 70.0384 236.339" fill="#333132"></path><path d="M83.5625 236.095L90.4244 220.667H93.9439L100.872 236.095H97.1314L91.4648 222.46H92.9036L87.237 236.095H83.5846H83.5625ZM87.0156 232.775L87.9231 230.074H95.914L96.8437 232.775H87.0377H87.0156Z" fill="#333132"></path><path d="M111.497 236.095V223.567H106.561V220.667H120.019V223.567H115.083V236.095H111.497Z" fill="#333132"></path><path d="M132.127 220.667H128.541V236.095H132.127V220.667Z" fill="#333132"></path><path d="M142.397 236.095V220.667H145.341L154.439 231.779H153.022V220.667H156.542V236.095H153.598L144.478 224.983H145.917V236.095H142.397Z" fill="#333132"></path><path d="M183.26 236.095H179.674V220.667H191.339V223.522H183.282V236.095H183.26ZM182.972 227.595H190.388V230.451H182.972V227.595Z" fill="#333132"></path><path d="M203.957 220.667H200.371V236.095H203.957V220.667Z" fill="#333132"></path><path d="M214.205 236.095V220.667H217.171L226.269 231.779H224.83V220.667H228.372V236.095H225.406L216.308 224.983H217.747V236.095H214.205Z" fill="#333132"></path><path d="M242.228 220.667H238.642V236.095H242.228V220.667Z" fill="#333132"></path><path d="M257.567 236.361C256.328 236.361 255.155 236.206 254.004 235.874C252.853 235.542 251.945 235.121 251.259 234.59L252.476 231.889C253.118 232.354 253.915 232.753 254.823 233.04C255.73 233.35 256.66 233.483 257.589 233.483C258.298 233.483 258.873 233.417 259.294 233.262C259.737 233.107 260.046 232.93 260.246 232.686C260.445 232.443 260.556 232.155 260.556 231.845C260.556 231.447 260.401 231.115 260.069 230.871C259.737 230.628 259.316 230.428 258.785 230.273C258.254 230.119 257.656 229.964 257.036 229.831C256.394 229.698 255.774 229.521 255.132 229.322C254.491 229.122 253.915 228.857 253.362 228.525C252.83 228.193 252.41 227.75 252.078 227.219C251.768 226.688 251.613 226.001 251.613 225.204C251.613 224.319 251.856 223.522 252.321 222.792C252.786 222.061 253.517 221.486 254.468 221.043C255.42 220.6 256.638 220.401 258.099 220.401C259.073 220.401 260.024 220.512 260.976 220.755C261.928 220.999 262.747 221.331 263.455 221.774L262.326 224.452C261.64 224.053 260.932 223.766 260.179 223.566C259.449 223.367 258.741 223.257 258.054 223.257C257.368 223.257 256.793 223.323 256.35 223.478C255.929 223.633 255.619 223.832 255.42 224.098C255.221 224.363 255.132 224.651 255.132 224.983C255.132 225.382 255.287 225.736 255.619 225.979C255.951 226.223 256.372 226.422 256.903 226.555C257.435 226.688 258.032 226.842 258.674 226.975C259.316 227.108 259.958 227.285 260.6 227.484C261.22 227.684 261.817 227.949 262.349 228.259C262.88 228.569 263.3 228.99 263.632 229.543C263.964 230.074 264.119 230.738 264.119 231.535C264.119 232.398 263.876 233.195 263.411 233.926C262.924 234.656 262.216 235.232 261.242 235.674C260.268 236.117 259.05 236.339 257.612 236.339" fill="#333132"></path><path d="M276.759 236.095H273.173V220.667H276.759V236.095ZM284.019 229.765H276.471V226.754H284.019V229.765ZM283.754 220.667H287.317V236.095H283.754V220.667Z" fill="#333132"></path><path d="M308.412 236.095L315.274 220.667H318.794L325.722 236.095H321.981L316.314 222.46H317.753L312.087 236.095H308.434H308.412ZM311.865 232.775L312.773 230.074H320.764L321.693 232.775H311.887H311.865Z" fill="#333132"></path><path d="M333.934 236.095V220.667H337.542V233.173H345.223V236.095H333.934Z" fill="#333132"></path><path d="M360.519 236.361C358.328 236.361 356.623 235.741 355.384 234.524C354.144 233.306 353.524 231.558 353.524 229.278V220.667H357.11V229.189C357.11 230.65 357.42 231.69 358.018 232.354C358.616 232.996 359.457 233.328 360.519 233.328C361.582 233.328 362.445 232.996 363.065 232.354C363.662 231.69 363.972 230.65 363.972 229.189V220.667H367.47V229.278C367.47 231.558 366.85 233.306 365.61 234.524C364.371 235.741 362.666 236.361 360.497 236.361" fill="#333132"></path><path d="M383.207 228.503H376.965V231.247H383.207V228.503Z" fill="#333132"></path><path d="M391.796 236.095V233.771L401.336 222.261L401.779 223.567H391.973V220.667H404.944V222.969L395.426 234.479L394.984 233.173H405.277V236.095H391.796Z" fill="#333132"></path><path d="M417.783 220.667H414.197V236.095H417.783V220.667Z" fill="#333132"></path><path d="M428.032 236.095V220.667H430.976L440.095 231.779H438.657V220.667H442.176V236.095H439.232L430.135 224.983H431.551V236.095H428.032Z" fill="#333132"></path><path d="M459.84 236.361C458.645 236.361 457.538 236.162 456.52 235.785C455.502 235.387 454.616 234.834 453.864 234.125C453.111 233.417 452.536 232.554 452.115 231.58C451.694 230.606 451.495 229.543 451.495 228.392C451.495 227.241 451.694 226.157 452.115 225.183C452.536 224.209 453.133 223.368 453.886 222.659C454.638 221.929 455.524 221.375 456.564 220.999C457.582 220.601 458.689 220.424 459.884 220.424C461.213 220.424 462.43 220.667 463.515 221.11C464.599 221.575 465.507 222.261 466.237 223.146L463.913 225.271C463.404 224.674 462.806 224.209 462.164 223.899C461.5 223.589 460.792 223.434 460.039 223.434C459.309 223.434 458.667 223.545 458.047 223.788C457.45 224.032 456.918 224.364 456.476 224.806C456.033 225.249 455.701 225.758 455.457 226.378C455.214 226.976 455.103 227.662 455.103 228.392C455.103 229.123 455.236 229.787 455.457 230.407C455.701 231.004 456.033 231.535 456.476 231.978C456.918 232.421 457.427 232.753 458.047 232.996C458.645 233.24 459.309 233.373 460.039 233.373C460.814 233.373 461.5 233.218 462.164 232.908C462.806 232.598 463.404 232.133 463.913 231.535L466.237 233.66C465.507 234.568 464.599 235.232 463.515 235.719C462.43 236.184 461.213 236.427 459.862 236.427" fill="#333132"></path><path d="M495.522 236.361C494.305 236.361 493.176 236.161 492.157 235.785C491.139 235.387 490.232 234.833 489.479 234.125C488.726 233.395 488.151 232.553 487.73 231.579C487.31 230.605 487.111 229.543 487.111 228.392C487.111 227.241 487.332 226.156 487.73 225.182C488.151 224.208 488.749 223.367 489.501 222.637C490.276 221.906 491.161 221.353 492.202 220.977C493.22 220.578 494.371 220.401 495.588 220.401C496.961 220.401 498.178 220.622 499.285 221.087C500.392 221.552 501.299 222.194 502.052 223.079L499.772 225.204C499.196 224.607 498.577 224.164 497.913 223.876C497.249 223.589 496.518 223.456 495.721 223.456C494.991 223.456 494.305 223.566 493.685 223.81C493.065 224.053 492.534 224.385 492.091 224.828C491.648 225.271 491.294 225.78 491.051 226.4C490.807 226.997 490.674 227.684 490.674 228.414C490.674 229.145 490.807 229.764 491.051 230.384C491.294 231.004 491.626 231.513 492.091 231.956C492.534 232.398 493.065 232.73 493.685 232.996C494.282 233.24 494.969 233.372 495.699 233.372C496.43 233.372 497.094 233.262 497.758 233.018C498.422 232.775 499.086 232.398 499.706 231.845L501.742 234.435C500.879 235.077 499.905 235.564 498.798 235.896C497.691 236.228 496.584 236.383 495.5 236.383M498.51 233.926V228.126H501.764V234.391L498.51 233.926Z" fill="#333132"></path><path d="M519.074 236.361C517.879 236.361 516.772 236.162 515.754 235.785C514.736 235.387 513.85 234.833 513.098 234.125C512.345 233.417 511.77 232.553 511.349 231.58C510.928 230.606 510.729 229.543 510.729 228.392C510.729 227.241 510.928 226.156 511.349 225.182C511.77 224.208 512.367 223.367 513.12 222.659C513.872 221.929 514.758 221.375 515.798 220.999C516.816 220.6 517.923 220.423 519.119 220.423C520.447 220.423 521.664 220.667 522.749 221.11C523.833 221.574 524.741 222.261 525.471 223.146L523.147 225.271C522.638 224.673 522.04 224.208 521.398 223.899C520.734 223.589 520.026 223.434 519.273 223.434C518.543 223.434 517.901 223.544 517.281 223.788C516.684 224.031 516.152 224.363 515.71 224.806C515.267 225.249 514.935 225.758 514.691 226.378C514.448 226.975 514.337 227.662 514.337 228.392C514.337 229.123 514.47 229.787 514.691 230.406C514.935 231.004 515.267 231.535 515.71 231.978C516.152 232.421 516.661 232.753 517.281 232.996C517.879 233.24 518.543 233.372 519.273 233.372C520.048 233.372 520.734 233.218 521.398 232.908C522.04 232.598 522.638 232.133 523.147 231.535L525.471 233.66C524.741 234.568 523.833 235.232 522.749 235.719C521.664 236.184 520.447 236.427 519.096 236.427" fill="#333132"></path><path d="M275.165 134.937L267.263 121.301L446.89 17L623.906 117.583L616.115 131.284L446.957 35.1952L275.165 134.937Z" fill="#231F20"></path><path d="M139.357 74.5049H154.237V68.711H145.989V49.7014H139.345V74.5049H139.357ZM125.91 74.5049V66.3181H128.704C130.988 66.3181 132.858 66.2088 134.522 65.2127C136.697 63.8887 137.899 61.4351 137.899 58.1312C137.899 54.8273 136.636 52.3737 134.498 50.989C132.591 49.7379 130.174 49.7014 127.113 49.7014H119.691V74.5049H125.923H125.91ZM125.91 60.8764V55.046H127.234C129.931 55.046 131.461 55.5318 131.461 57.9247C131.461 60.3176 129.992 60.8764 127.174 60.8764H125.91ZM103.439 65.2492L105.893 57.0623C105.99 56.6858 106.306 55.5683 106.743 53.7341C107.18 55.5683 107.46 56.6858 107.557 57.0623L110.047 65.2492H103.439ZM94.1348 74.5049H100.743L102.006 70.0593H111.444L112.671 74.5049H119.278L110.861 49.7014H102.552L94.1348 74.5049Z" fill="#01A6B3"></path><path d="M284.571 62.1517C284.571 58.6413 283.271 55.4224 280.793 52.9566C278.339 50.5273 274.975 49.1426 271.562 49.1426C268.148 49.1426 264.82 50.5273 262.367 52.9566C259.876 55.4224 258.552 58.617 258.552 62.1517C258.552 66.1358 260.217 69.6826 263.29 72.1848C265.634 74.0919 268.598 75.1729 271.562 75.1729C274.963 75.1729 278.303 73.8125 280.793 71.3467C283.247 68.9174 284.571 65.6864 284.571 62.1517ZM271.562 69.4397C267.675 69.4397 265.197 66.2451 265.197 62.1517C265.197 58.0582 267.82 54.8637 271.562 54.8637C275.303 54.8637 277.926 58.1311 277.926 62.1517C277.926 66.1722 275.339 69.4397 271.562 69.4397ZM244.013 74.5048H258.893V68.7109H250.645V49.7013H244.001V74.5048H244.013ZM227.809 74.5048H242.689V68.7109H234.441V49.7013H227.797V74.5048H227.809ZM225.574 62.1517C225.574 58.6413 224.275 55.4224 221.797 52.9566C219.343 50.5273 215.978 49.1426 212.565 49.1426C209.152 49.1426 205.824 50.5273 203.37 52.9566C200.88 55.4224 199.556 58.617 199.556 62.1517C199.556 66.1358 201.22 69.6826 204.293 72.1848C206.638 74.0919 209.601 75.1729 212.565 75.1729C215.966 75.1729 219.307 73.8125 221.797 71.3467C224.25 68.9174 225.574 65.6864 225.574 62.1517ZM212.565 69.4397C208.678 69.4397 206.2 66.2451 206.2 62.1517C206.2 52.4586 218.942 52.5315 218.942 62.1517C218.942 66.2087 216.355 69.4397 212.577 69.4397H212.565ZM187.142 74.5048V66.318H189.936C192.219 66.318 194.09 66.2087 195.754 65.2126C197.928 63.8886 199.131 61.435 199.131 58.1311C199.131 54.8272 197.868 52.3736 195.73 50.9889C193.823 49.7378 191.406 49.7013 188.345 49.7013H180.923V74.5048H187.154H187.142ZM187.142 60.8763V55.0459H188.466C191.163 55.0459 192.693 55.5317 192.693 57.9246C192.693 60.3175 191.223 60.8763 188.405 60.8763H187.142ZM164.671 65.2491L167.124 57.0622C167.222 56.6857 167.537 55.5682 167.975 53.734C168.412 55.5682 168.691 56.6857 168.789 57.0622L171.279 65.2491H164.671ZM155.366 74.5048H161.974L163.237 70.0592H172.675L173.902 74.5048H180.51L172.092 49.7013H163.784L155.366 74.5048Z" fill="#F1802E"></path><path d="M280.696 46.1181H281.34C281.644 46.1181 281.863 46.0695 281.972 45.9845C282.081 45.8873 282.142 45.7658 282.142 45.6201C282.142 45.5229 282.118 45.4379 282.057 45.3528C282.008 45.28 281.923 45.2192 281.838 45.1828C281.741 45.1464 281.559 45.1221 281.304 45.1221H280.696V46.1181ZM280.162 47.9887V44.6726H281.292C281.68 44.6726 281.96 44.6969 282.13 44.7577C282.3 44.8184 282.446 44.9277 282.543 45.0735C282.64 45.2314 282.701 45.3893 282.701 45.5593C282.701 45.8023 282.616 46.0088 282.446 46.191C282.276 46.3732 282.045 46.4703 281.765 46.4946C281.887 46.5432 281.972 46.604 282.045 46.6647C282.178 46.7983 282.336 47.0169 282.531 47.3206L282.931 47.9644H282.288L281.996 47.4421C281.765 47.0291 281.583 46.774 281.437 46.6768C281.34 46.604 281.195 46.5675 281.012 46.5675H280.696V47.9765H280.162V47.9887ZM281.51 43.713C281.085 43.713 280.66 43.8224 280.259 44.041C279.858 44.2596 279.53 44.5755 279.3 44.9884C279.069 45.4014 278.96 45.8266 278.96 46.276C278.96 46.7254 279.069 47.1384 279.3 47.5514C279.53 47.9522 279.846 48.2802 280.247 48.4988C280.648 48.7296 281.073 48.8389 281.522 48.8389C281.972 48.8389 282.385 48.7296 282.798 48.4988C283.199 48.268 283.515 47.9522 283.745 47.5514C283.964 47.1506 284.085 46.7254 284.085 46.276C284.085 45.8266 283.976 45.4014 283.745 44.9884C283.515 44.5755 283.199 44.2596 282.786 44.041C282.373 43.8224 281.96 43.713 281.535 43.713H281.51ZM281.51 43.2029C282.02 43.2029 282.531 43.3365 283.016 43.6037C283.502 43.8709 283.891 44.2475 284.158 44.7455C284.425 45.2435 284.571 45.7537 284.571 46.2881C284.571 46.8226 284.438 47.3328 284.17 47.8186C283.903 48.3045 283.527 48.6932 283.041 48.9604C282.555 49.2276 282.045 49.3612 281.522 49.3612C281 49.3612 280.49 49.2276 280.004 48.9604C279.518 48.6932 279.142 48.3045 278.874 47.8186C278.607 47.3328 278.474 46.8226 278.474 46.2881C278.474 45.7537 278.607 45.2314 278.887 44.7455C279.166 44.2475 279.543 43.8709 280.028 43.6037C280.514 43.3365 281.024 43.2029 281.535 43.2029H281.51Z" fill="#606161"></path><path fill-rule="evenodd" clip-rule="evenodd" d="M151.103 47.6972C143.961 35.4291 132.846 26.5741 117.809 26.5741C98.3013 26.5741 82.462 42.0976 82.462 61.2043C82.462 80.311 98.2892 95.8224 117.809 95.8224C128.911 95.8224 138.81 90.8179 145.297 82.959C147.532 80.9184 149.451 78.5619 150.957 76.0111C144.386 94.8385 125.814 107.034 105.565 105.892C82.3649 104.592 63.8655 86.1293 63.0273 63.245C62.9909 62.176 62.9909 61.095 63.0273 60.0018C63.8412 38.0163 81.0166 20.0878 102.953 17.6099C124.198 15.2291 144.349 27.7038 151.091 47.6851" fill="#01A6B3"></path><path fill-rule="evenodd" clip-rule="evenodd" d="M117.615 26.5741C130.733 26.149 141.763 33.8257 148.492 43.628C142.212 36.6315 132.507 31.6393 121.988 31.6393C104.096 31.6393 89.5927 45.3286 89.5927 62.1882C89.5927 79.0478 104.399 91.5831 122.304 91.5831C131.232 91.5831 139.601 88.3157 145.443 82.8254C138.483 91.1216 128.875 95.8102 117.846 95.8102C98.4476 95.8102 82.7663 80.6268 82.4019 61.6537C82.4019 42.1583 98.2168 26.5619 117.615 26.5619" fill="#F1802E"></path></svg>