<?xml version="1.0" encoding="UTF-8"?>
<svg id="Layer_1" xmlns="http://www.w3.org/2000/svg" version="1.1" viewBox="0 0 493 250">
  <!-- Generator: Adobe Illustrator 29.5.0, SVG Export Plug-In . SVG Version: 2.1.0 Build 137)  -->
  <defs>
    <style>
      .st0 {
        fill: #f1802f;
      }

      .st1 {
        fill: #fff;
      }

      .st2 {
        fill: #25225a;
      }

      .st3 {
        fill: #00a6b2;
      }
    </style>
  </defs>
  <polygon class="st2" points="290.3 154.9 276.1 154.9 249.2 200.5 221.7 154.9 207.7 154.9 207.7 228.3 223.5 228.3 223.5 185 245.1 220.4 252.6 220.4 274.2 184.5 274.4 228.3 290.3 228.3 290.3 154.9"/>
  <path class="st2" d="M375,208.3c0-4.3-1-7.9-3-10.8-2-2.9-4.8-5.2-8.3-6.7-.6-.3-1.2-.5-1.9-.7,2.8-1.5,5.1-3.5,6.8-6,1.9-2.8,2.8-6.2,2.8-10,0-5.7-2.3-10.3-7-13.8-4.6-3.5-11.6-5.2-20.8-5.2h-35.8v73.4h37.9c9.6,0,16.9-1.8,21.9-5.3,5-3.5,7.4-8.4,7.4-14.7M324.6,167.7h16.9c4.1,0,7.3.7,9.5,2.1,2.2,1.4,3.3,3.6,3.3,6.5s-1.1,5.1-3.3,6.5c-2.2,1.4-5.4,2.1-9.5,2.1h-16.9v-17.3ZM354.5,213.3c-2.3,1.5-5.6,2.2-10,2.2h-19.9v-18.1h19.9c4.3,0,7.7.7,10,2.2,2.3,1.5,3.5,3.8,3.5,6.9s-1.2,5.3-3.5,6.8"/>
  <path class="st2" d="M386.3,176.5c-2,4.6-3,9.6-3,15.1s1,10.5,3,15.1c2,4.6,4.8,8.6,8.4,12.1,3.6,3.4,7.9,6.1,12.8,8,4.9,1.9,10.2,2.8,16,2.8s11-.9,15.9-2.8c4.9-1.9,9.1-4.5,12.7-7.9s6.4-7.5,8.4-12.1c2-4.6,3-9.7,3-15.1s-1-10.6-3-15.2c-2-4.6-4.8-8.6-8.4-12.1-3.6-3.4-7.9-6.1-12.7-7.9-4.9-1.9-10.2-2.8-16-2.8s-11.1.9-16,2.8c-4.9,1.9-9.1,4.5-12.7,8-3.6,3.4-6.4,7.4-8.4,12M402.2,182.1c1.2-2.8,2.8-5.3,4.8-7.4,2.1-2.1,4.5-3.8,7.3-4.9,2.8-1.2,5.8-1.7,9.1-1.7s6.3.6,9.1,1.7c2.8,1.2,5.2,2.8,7.3,4.9,2.1,2.1,3.7,4.6,4.9,7.4,1.2,2.8,1.7,6,1.7,9.5s-.6,6.7-1.7,9.5c-1.2,2.8-2.8,5.3-4.9,7.4-2.1,2.1-4.5,3.8-7.3,4.9-2.8,1.2-5.8,1.7-9.1,1.7s-6.3-.6-9.1-1.7c-2.8-1.2-5.2-2.8-7.3-4.9-2.1-2.1-3.7-4.6-4.8-7.4-1.2-2.8-1.7-6-1.7-9.5s.6-6.7,1.7-9.5"/>
  <path class="st2" d="M190.8,195.9v-41h-16.7v40.6c0,6.9-1.4,11.9-4.3,15-2.9,3.1-6.9,4.7-12.1,4.7s-9.1-1.6-11.9-4.7c-2.9-3.1-4.3-8.1-4.3-15v-40.6h-17.1v41c0,10.8,2.9,19.1,8.8,24.9,5.9,5.8,14,8.7,24.4,8.7s18.4-2.9,24.3-8.7c5.9-5.8,8.8-14.1,8.8-24.9"/>
  <path class="st2" d="M220.1,43c.6-5.8,1.5-9.7,2.4-12.2.8-2.5,1.6-3.6,1.6-3.8.2-.7-.2-1.5-1.2-2.3-.7-.5-1.7-1.1-2.9-1.5-5.5-2.2-15.7-3.6-26.9-1.8-.7,0-1.5.2-2.4.4-5.9,1.2-11.9,3.3-17.7,6.6h0s-8.8,5-12.8,8.1c-2.8-2.4-5.8-4.6-9-6.4,0,0,0,0,0,0,0,0,0,0,0,0h0c-7.7-4.3-16.6-6.8-25.4-6.9-1.4,0-2.7,0-4.1.1-14.9,1.4-17.1,4.8-29.1,9.9-9.2,3.9-19.2,1.2-26.6-5-1.3-1.1-4.2-4.2-5.3-4.7-.7.7-.3,6.9-.3,8.2.6,14.8,11.7,23.9,26.2,23.9v.7c-14.4,19.8-9.3,58.4-4.5,80.6,3.6-2.2,6.2-5.3,7.9-9.4l.4-1.1h1.2c.1,0,.3,0,.5,0,.6,0,1.3,0,2,.2,1.7.4,3.5,1,4.2,2.6.6,1.5,0,3-.6,4.2-1.4,2.5-3.8,4.5-5.1,5.4-3,2.1-5.9,3.8-8.8,5.1,1.4,5.6,2.5,9.2,2.7,9.8v35.4c0,8.3-1.9,14.4-5.6,18.2-3.8,3.8-9.1,5.7-16,5.7s-13.6-2.2-17.5-6.5c-3.9-4.3-5.8-12.4-5.8-24.1v-2.5h-18.8v3c0,10.6,1.7,19.3,5,26.1,3.4,6.8,8.2,11.8,14.4,15,6.3,3.2,13.7,4.9,22.4,4.9s13-1,18.2-3c5.2-2,9.4-4.8,12.8-8.2,3.4-3.4,5.9-7.5,7.5-12.1,1.7-4.6,2.5-9.7,2.5-15.3v-57.7c.7-2.9,7.2-7,9-9.2,6.5-6.6,17.9-2.9,17.9,6.8,0,4.6-5.3,12.6-8.2,16.2.6-.2,1.2-.3,1.8-.5,2.4-.6,5.3-1.3,8.6-2.1h0c6.1-1.3,18.3-6.8,24.9-14.2,5.5-6.1,5.9-14.3,6.6-16-1.4,3.9,6.6,12.1,8.7,13.3,9.5,5.4,24.1,2,34.4-3.9,0,0,.1,0,.2-.1.1,0,.3-.2.4-.3-5.8-9.7-9.2-21.1-9.2-33.2,0-18.1,7.5-34.6,19.7-46.4M99,82.1c0,.7-.2,1.3-.4,1.9-.4,1.2-1,2.3-1.8,3.3-.4.5-.8.9-1.3,1.3-.1,0-.3.2-.4.2-.2.1-.4.1-.6,0-.4,0-.8-.2-1.1-.5-.1,0-.2-.2-.2-.4-.1-.5-.2-1-.3-1.6,0-.5-.1-1-.2-1.5,0,0,0-.2,0-.3,0,0,0-.1,0-.2.4-.2.8-.4,1.2-.6,1.6-.9,3.3-1.7,4.9-2.6,0,0,0,0,.1,0,0,.3,0,.5,0,.8M102.1,80.5c0,0-.1,0-.2-.1-.7-.6-1.5-1-2.3-1.2-.4-.1-.8-.2-1.3-.2-.3,0-.7,0-1,0-.9,0-1.7.3-2.5.7-1.1.6-1.9,1.3-2.6,2.3-.4.5-.7,1.1-.9,1.7,0,0,0,0,0,.1,0-.2,0-.4,0-.5,0-.4,0-.8.2-1.2.4-1.5,1.2-2.6,2.5-3.4.7-.4,1.4-.6,2.1-.8.4,0,.9-.2,1.4-.2.4,0,.8,0,1.1,0,.5,0,1.1.1,1.6.4,1,.4,1.6,1.1,1.9,2.1,0,.2,0,.3.1.5,0,0,0,0,0,0"/>
  <path class="st2" d="M73.7,144.9c6.3-.7,12.3-3.6,17.7-7.4,1.7-1.2,3.6-2.9,4.6-4.9,1.5-2.8.6-3.7-2.5-4.4-.7-.2-1.6-.1-2.1-.2-3,7.4-8.7,11.4-15.8,13.1-7.4,1.8-14,0-20.2-3.9.4,2.8,2.4,5,5.7,6.3,4.2,1.6,8.4,1.8,12.7,1.4"/>
  <path class="st1" d="M94,84c-.4.2-.8.4-1.2.6,0,0,0,0,0,.2,0,0,0,.2,0,.3,0,.5.1,1,.2,1.5,0,.5.2,1,.3,1.6,0,.1.1.3.2.4.3.3.7.4,1.1.5.2,0,.4,0,.6,0,.1,0,.3-.2.4-.2.5-.4.9-.8,1.3-1.3.8-1,1.3-2.1,1.8-3.3.2-.6.4-1.3.4-1.9,0-.2,0-.5,0-.8,0,0,0,0-.1,0-1.6.9-3.3,1.7-4.9,2.6"/>
  <path class="st1" d="M100.1,78c-.5-.2-1-.3-1.6-.4-.4,0-.8,0-1.1,0-.5,0-.9,0-1.4.2-.7.2-1.4.4-2.1.8-1.3.8-2.2,1.9-2.5,3.4-.1.4-.2.8-.2,1.2,0,.2,0,.3,0,.5,0,0,0,0,0-.1.3-.6.6-1.2.9-1.7.7-1,1.5-1.8,2.6-2.3.8-.4,1.6-.7,2.5-.7.3,0,.7,0,1,0,.4,0,.9.1,1.3.2.9.3,1.6.7,2.3,1.2,0,0,.1,0,.2.1,0,0,0,0,0,0,0-.2,0-.3-.1-.5-.3-1-.9-1.7-1.9-2.1"/>
  <path class="st1" d="M314.6,120.9c-1.2,1.3-2.5,2.5-3.9,3.6,1.4-1.1,2.7-2.3,3.9-3.6"/>
  <path class="st1" d="M232.9,79.3c1.8-8.7,6-16.5,11.9-22.7-5.9,6.2-10.1,14-11.9,22.7"/>
  <path class="st1" d="M259.3,130.9c6.2,2.9,13.2,4.5,20.6,4.5s2.7,0,4-.2c-1.3.1-2.6.2-4,.2-7.4,0-14.4-1.6-20.6-4.5"/>
  <path class="st0" d="M280,41.6s0,0-.1,0c-13.6,0-25.9,5.6-34.6,14.5,0,0,0,0,0,0-.1.1-.2.2-.4.4-5.9,6.2-10.1,14-11.9,22.7-.6,3-.9,6.1-.9,9.3,0,17.4,9.7,32.6,24,40.7,0,0,0,0,0,0,.3.1.5.3.8.4,0,0,.2.1.3.2.2,0,.4.2.5.3.2,0,.4.2.5.3.1,0,.2,0,.3.1.3.1.5.3.8.4,0,0,0,0,0,0,6.2,2.9,13.2,4.5,20.6,4.5s2.7,0,4-.2c10.2-.8,19.4-4.8,26.8-10.8,1.3-1.1,2.6-2.3,3.9-3.6.9-.9,1.8-1.9,2.6-2.9,0,0,0,0,0,0-7.9,7.4-19.2,11.7-31.2,11.7-24.3,0-44.3-17-44.3-39.8s19.7-41.4,43.9-41.4,27.4,6.8,35.9,16.2c-9.6-13.7-23.5-23.1-41.5-23.1"/>
  <path class="st3" d="M219.7,56.3c.2,13.2,2.3,24.4,3.1,33.9,1.1,12.4.3,21.9-8.8,29.4,10.1,16.8,28.2,28.4,49.3,29.6,27.5,1.5,52.6-15,61.5-40.5-2,3.4-4.6,6.6-7.6,9.4,0,0,.1,0,.2-.1-.9,1.1-1.8,2.1-2.8,3.1-1.2,1.3-2.5,2.5-3.9,3.6-7.6,6.3-16.7,10-26.8,10.8-1.3.1-2.7.2-4,.2-7.4,0-14.3-1.6-20.6-4.5,0,0,0,0,0,0-.3-.1-.5-.3-.8-.4-.1,0-.2,0-.3-.1-.2,0-.4-.2-.5-.3-.2,0-.4-.2-.5-.3,0,0-.2-.1-.3-.2-.3-.1-.5-.3-.8-.4,0,0,0,0,0,0-14.2-8-23.8-22.9-24.1-40.1,0-3.4.4-6.7,1-9.9,1.8-8.7,6-16.5,11.9-22.7.1-.1.2-.2.4-.4,0,0,0,0,0,0,8.7-9,20.9-14.5,34.4-14.5,0,0,.1,0,.2,0,0,0,0,0,0,0s0,0,0,0c17.6-.4,32.5,9.9,41.5,23.1,0,0,0,0,0,0,1.2,1.8,2.4,3.6,3.5,5.5-9.1-27.1-36.5-44-65.3-40.8-16.1,1.8-30.3,9.8-40.1,21.4,0,1.7,0,3.5,0,5.4"/>
  <path class="st3" d="M205.7,91.3c.4,10.3,3.4,19.9,8.4,28.2,9.1-7.5,9.9-17,8.8-29.4-.9-9.5-2.9-20.7-3.1-33.9,0-1.9,0-3.7,0-5.4-8.3,9.9-13.5,22.4-14,36,0,1.5,0,2.9,0,4.4"/>
  <path class="st3" d="M314.6,120.9c1-1,1.9-2,2.8-3.1,0,0-.1,0-.2.1,0,0,0,0,0,0-.8,1-1.7,2-2.6,2.9"/>
  <path class="st3" d="M232,88.5c0-3.2.3-6.3.9-9.3-.7,3.2-1,6.5-1,9.9.3,17.2,9.9,32.1,24.1,40.1-14.3-8.1-24-23.3-24-40.7"/>
  <path class="st3" d="M280,41.6c18,0,31.9,9.4,41.5,23.1,0,0,0,0,0,0-9.1-13.2-23.9-23.6-41.5-23.1"/>
  <path class="st3" d="M279.6,41.6c-13.5,0-25.7,5.6-34.4,14.5,8.7-8.9,21-14.5,34.6-14.5,0,0-.1,0-.2,0"/>
  <path class="st3" d="M279.9,41.6s0,0,0,0c0,0,0,0,.1,0,0,0,0,0,0,0"/>
  <path class="st3" d="M310.7,124.5c-7.4,6.1-16.6,10-26.8,10.8,10.1-.8,19.2-4.6,26.8-10.8"/>
  <polygon class="st3" points="317 75.6 309.7 75.6 309.7 103.1 326.1 103.1 326.1 96.7 317 96.7 317 75.6"/>
  <path class="st3" d="M304.3,77c-2.1-1.4-4.8-1.4-8.2-1.4h-8.2v27.5h6.9v-9.1h3.1c2.5,0,4.6-.1,6.4-1.2,2.4-1.5,3.7-4.2,3.7-7.8s-1.4-6.4-3.8-7.9M296.2,88h-1.4v-6.5h1.5c3,0,4.7.5,4.7,3.2s-1.6,3.3-4.8,3.3"/>
  <path class="st3" d="M268.9,75.6l-9.3,27.5h7.3l1.4-4.9h10.4l1.4,4.9h7.3l-9.3-27.5h-9.2ZM269.9,92.8l2.7-9.1c.1-.4.5-1.7.9-3.7.5,2,.8,3.3.9,3.7l2.8,9.1h-7.3Z"/>
  <path class="st0" d="M390.8,75c-3.8,0-7.5,1.5-10.2,4.2-2.8,2.7-4.2,6.3-4.2,10.2s1.8,8.3,5.2,11.1c2.6,2.1,5.9,3.3,9.2,3.3s7.5-1.5,10.2-4.2c2.7-2.7,4.2-6.3,4.2-10.2s-1.4-7.5-4.2-10.2c-2.7-2.7-6.4-4.2-10.2-4.2M390.8,97.5c-4.3,0-7.1-3.5-7.1-8.1,0-10.7,14.1-10.7,14.1,0s-2.9,8.1-7.1,8.1"/>
  <path class="st0" d="M466.3,79.2c-2.7-2.7-6.4-4.2-10.2-4.2s-7.5,1.5-10.2,4.2c-2.8,2.7-4.2,6.3-4.2,10.2s1.8,8.3,5.2,11.1c2.6,2.1,5.9,3.3,9.2,3.3s7.5-1.5,10.2-4.2c2.7-2.7,4.2-6.3,4.2-10.2s-1.4-7.5-4.2-10.2M456.1,97.5c-4.3,0-7.1-3.5-7.1-8.1s2.9-8.1,7.1-8.1,7.1,3.6,7.1,8.1-2.9,8.1-7.1,8.1"/>
  <path class="st0" d="M336.7,75.6l-3,8.8c.1,1.7.2,3.3.2,5,0,4.7-.5,9.3-1.5,13.7h2.3l1.4-4.9h10.4l1.4,4.9h7.3l-9.3-27.5h-9.2ZM337.7,92.8l2.7-9.1c.1-.4.5-1.7.9-3.7.5,2,.8,3.3.9,3.7l2.8,9.1h-7.3Z"/>
  <path class="st0" d="M333.7,84.4l-6.3,18.6h5.1c1-4.4,1.5-9,1.5-13.7s0-3.3-.2-5"/>
  <polygon class="st0" points="432.9 75.6 425.6 75.6 425.6 103.1 442.1 103.1 442.1 96.7 432.9 96.7 432.9 75.6"/>
  <polygon class="st0" points="415 75.6 407.6 75.6 407.6 103.1 424.1 103.1 424.1 96.7 415 96.7 415 75.6"/>
  <path class="st0" d="M372.1,77c-2.1-1.4-4.8-1.4-8.2-1.4h-8.2v27.5h6.9v-9.1h3.1c2.5,0,4.6-.1,6.4-1.2,2.4-1.5,3.7-4.2,3.7-7.8s-1.4-6.4-3.8-7.9M364,88h-1.4v-6.5h1.5c3,0,4.7.5,4.7,3.2s-1.6,3.3-4.8,3.3"/>
</svg>