<svg xmlns="http://www.w3.org/2000/svg" xmlns:xlink="http://www.w3.org/1999/xlink" viewBox="0 0 493 250"><defs><style>      .cls-1 {        fill: #2b388f;      }      .cls-2 {        fill: url(#linear-gradient-5);      }      .cls-3 {        fill: url(#linear-gradient-4);      }      .cls-4 {        fill: url(#linear-gradient-3);      }      .cls-5 {        fill: url(#linear-gradient-2);      }      .cls-6 {        fill: #231f20;      }      .cls-7 {        fill: url(#linear-gradient);      }      .cls-8, .cls-9 {        fill: #e7731f;      }      .cls-10, .cls-11 {        fill: #01a6b3;      }      .cls-9, .cls-11 {        fill-rule: evenodd;      }      .cls-12 {        fill: #4e4d50;      }    </style><linearGradient id="linear-gradient" x1="37.4" y1="118" x2="291.9" y2="118" gradientTransform="translate(0 250) scale(1 -1)" gradientUnits="userSpaceOnUse"><stop offset=".5" stop-color="#d0d2d3"></stop><stop offset="1" stop-color="#757779"></stop></linearGradient><linearGradient id="linear-gradient-2" x1="37.4" y1="112" x2="291.9" y2="112" gradientTransform="translate(0 250) scale(1 -1)" gradientUnits="userSpaceOnUse"><stop offset=".5" stop-color="#d0d2d3"></stop><stop offset="1" stop-color="#757779"></stop></linearGradient><linearGradient id="linear-gradient-3" x1="37.4" y1="106" x2="291.9" y2="106" gradientTransform="translate(0 250) scale(1 -1)" gradientUnits="userSpaceOnUse"><stop offset=".5" stop-color="#d0d2d3"></stop><stop offset="1" stop-color="#757779"></stop></linearGradient><linearGradient id="linear-gradient-4" x1="37.4" y1="99.9" x2="291.9" y2="99.9" gradientTransform="translate(0 250) scale(1 -1)" gradientUnits="userSpaceOnUse"><stop offset=".5" stop-color="#d0d2d3"></stop><stop offset="1" stop-color="#757779"></stop></linearGradient><linearGradient id="linear-gradient-5" x1="37.4" y1="93.9" x2="291.9" y2="93.9" gradientTransform="translate(0 250) scale(1 -1)" gradientUnits="userSpaceOnUse"><stop offset=".5" stop-color="#d0d2d3"></stop><stop offset="1" stop-color="#757779"></stop></linearGradient></defs><g><g id="Layer_1"><g id="Layer_1-2" data-name="Layer_1"><g><path class="cls-1" d="M37.4,208.7v-102.8h23.9v10.3h.3c4.4-4.8,8.9-8.1,13.6-9.9,4-1.5,8.7-2.2,14.5-2.2,12.9,0,23.2,3.3,31.1,9.9,8.5,7.1,12.6,17,12.6,29.8s-4,21.9-12,29.4c-8,7.5-18,11.1-30.2,11.1s-23.8-3.8-29.1-11.2v51.5l-24.8-15.7h0ZM61.3,144.2c0,6.8,2.3,12.2,7,16.3,4.2,3.7,9.6,5.5,16.2,5.5s12.1-1.8,16.3-5.5c4.7-4.1,7-9.5,7-16.3s-2.3-12.2-7-16.3c-4.2-3.7-9.7-5.5-16.3-5.5s-12,1.8-16.2,5.5c-4.7,4.1-7,9.5-7,16.3Z"></path><path class="cls-1" d="M296,181.4v-102.1h24.8v102.1h-24.8Z"></path><path class="cls-1" d="M326.3,181.4v-85.3l24.8,15.4v69.9h-24.8Z"></path><path class="cls-1" d="M356,143.7c0-13.7,4.6-24,13.8-30.9,8.5-6.4,20.4-9.6,36-9.6s27.6,3.2,36.2,9.6c9.1,6.9,13.6,17.2,13.6,30.9s-4.5,24-13.6,30.9c-8.6,6.4-20.6,9.6-36.2,9.6s-27.5-3.2-36-9.6c-9.2-6.9-13.8-17.2-13.8-30.9h0ZM381.6,143.7c0,7.4,2.1,13.1,6.4,17.1,4.2,4,10.2,6,17.9,6s13.6-2,17.9-6c4.2-4,6.4-9.7,6.4-17.1s-2.1-13.1-6.4-17.1c-4.2-4-10.2-6-17.9-6s-13.6,2-17.9,6c-4.2,4-6.4,9.7-6.4,17.1Z"></path><polygon class="cls-1" points="296 47.2 296 181.4 320.7 181.4 320.7 62.5 296 47.2"></polygon><g><polygon class="cls-7" points="37.4 213.6 37.4 216.6 291.9 50.3 291.9 47.3 37.4 213.6"></polygon><polygon class="cls-5" points="37.4 219.7 37.4 222.7 291.9 56.3 291.9 53.4 37.4 219.7"></polygon><polygon class="cls-4" points="37.4 225.8 37.4 228.7 291.9 62.4 291.9 59.3 37.4 225.8"></polygon><polygon class="cls-3" points="37.4 231.7 37.4 234.8 291.9 68.5 291.9 65.4 37.4 231.7"></polygon><polygon class="cls-2" points="37.4 237.8 37.4 240.8 291.9 74.4 291.9 71.4 37.4 237.8"></polygon></g><path class="cls-1" d="M228.5,181.4v-75.4h23.9v14.7h.3c4.8-6.1,9.2-10.3,13.3-12.6,4.5-2.8,10.1-4.1,16.9-4.1s6.6.3,9,.7v23.2c-5.3-1.5-9.9-2.2-13.6-2.2-16.6,0-24.9,7.7-24.9,23.2v32.5h-24.9Z"></path><path class="cls-1" d="M199,181.4v-10.1h-.3c-2.5,3.5-6.4,6.4-11.7,8.8-5.9,2.8-12.2,4.1-19.2,4.1s-15.4-1.7-21-5.2c-7.6-4.7-11.4-12-11.4-21.9v-51.1h24.8v43.7c0,10.3,5.6,15.5,16.9,15.5s21-7.1,21-21.4v-37.7h24.8v75.4h-23.9,0Z"></path><path class="cls-8" d="M326.3,90.1v3l24.8,15.3v-3l-24.8-15.3Z"></path><path class="cls-8" d="M326.3,84.1v3l24.8,15.4v-3l-24.8-15.3h0Z"></path><path class="cls-8" d="M326.3,78v3l24.8,15.3v-3l-24.8-15.3Z"></path><path class="cls-8" d="M326.3,72.1v3l24.8,15.4v-3l-24.8-15.3h0Z"></path><path class="cls-8" d="M326.3,66v3l24.8,15.4v-3s-24.8-15.4-24.8-15.4Z"></path><g><path class="cls-10" d="M100.7,68.6h12.3v-4.8h-6.8v-15.7h-5.5v20.5ZM89.6,68.6v-6.8h2.3c1.9,0,3.4,0,4.8-.9,1.8-1.1,2.8-3.1,2.8-5.9s-1-4.8-2.9-5.9c-1.6-1-3.6-1.1-6.2-1.1h-6.2v20.5h5.3ZM89.6,57.3v-4.9h1.1c2.2,0,3.5.4,3.5,2.4s-1.2,2.5-3.6,2.5h-1ZM70.9,60.9l2-6.8c0-.3.4-1.2.7-2.8.4,1.6.6,2.5.6,2.8l2,6.8h-5.5,0ZM63.2,68.6h5.5l1-3.7h7.8l1,3.7h5.5l-7-20.5h-6.9l-7,20.5Z"></path><path class="cls-8" d="M221.2,58.3c0-2.9-1.1-5.6-3.1-7.6-2-2-4.8-3.1-7.6-3.1s-5.6,1.1-7.6,3.1c-2,2-3.1,4.7-3.1,7.6s1.4,6.3,4,8.3c1.9,1.6,4.4,2.5,6.9,2.5s5.6-1.1,7.6-3.1c2-2,3.1-4.7,3.1-7.6M210.4,64.4c-3.2,0-5.2-2.7-5.2-6.1s2.2-6.1,5.2-6.1,5.2,2.7,5.2,6.1-2.1,6.1-5.2,6.1ZM187.5,68.6h12.3v-4.8h-6.8v-15.7h-5.5v20.5ZM174.1,68.6h12.3v-4.8h-6.8v-15.7h-5.5v20.5ZM172.2,58.3c0-2.9-1.1-5.6-3.1-7.6-2-2-4.8-3.1-7.6-3.1s-5.6,1.1-7.6,3.1-3.1,4.7-3.1,7.6,1.4,6.3,4,8.3c1.9,1.6,4.4,2.5,6.9,2.5s5.6-1.1,7.6-3.1,3.1-4.7,3.1-7.6h0ZM161.4,64.4c-3.2,0-5.2-2.7-5.2-6.1,0-8,10.6-8,10.6,0s-2.1,6.1-5.2,6.1h0ZM140.3,68.6v-6.8h2.3c1.9,0,3.4,0,4.8-.9,1.8-1.1,2.8-3.1,2.8-5.9s-1-4.8-2.9-5.9c-1.6-1-3.6-1.1-6.2-1.1h-6.2v20.5h5.3ZM140.3,57.3v-4.9h1.1c2.2,0,3.5.4,3.5,2.4s-1.2,2.5-3.6,2.5h-1ZM121.7,60.9l2-6.8c0-.3.4-1.2.7-2.8.4,1.6.6,2.5.6,2.8l2,6.8h-5.5,0ZM114,68.6h5.5l1-3.7h7.8l1,3.7h5.5l-7-20.5h-6.9l-7,20.5Z"></path><path class="cls-12" d="M218,45.1h.6c.3,0,.5,0,.6,0,0,0,.2-.2.2-.3v-.2l-.2-.2h-.9v.8h-.2ZM217.5,46.6v-2.8h1.7c.2,0,.3.2.4.3,0,0,0,.3,0,.4,0,.2,0,.4-.2.6s-.4.3-.6.3c0,0,.2,0,.3.2,0,0,.3.3.4.6l.4.6h-.6l-.3-.5c-.2-.4-.4-.6-.5-.6,0,0-.2,0-.4,0h-.3v1.2h-.5,0ZM218.6,43c-.4,0-.7,0-1,.3-.4.2-.6.5-.8.8-.2.4-.3.7-.3,1.1s0,.7.3,1c.2.4.5.6.8.8s.6.3,1,.3.7,0,1-.3c.4-.2.6-.5.8-.8.2-.4.3-.6.3-1s0-.7-.3-1.1c-.2-.4-.5-.6-.8-.8-.4-.2-.6-.3-1-.3ZM218.6,42.7c.5,0,.8,0,1.3.4.4.2.7.6.9.9s.4.8.4,1.3,0,.8-.4,1.3c-.2.4-.6.7-.9.9s-.8.4-1.3.4-.8,0-1.3-.4c-.4-.2-.7-.6-.9-.9s-.4-.8-.4-1.3,0-.8.4-1.3c.2-.4.6-.7.9-.9s.8-.4,1.3-.4Z"></path><path class="cls-11" d="M110.5,46.4c-5.9-10.1-15.1-17.5-27.6-17.5s-29.3,12.9-29.3,28.7,13.2,28.7,29.3,28.7,17.4-4.1,22.8-10.7c1.8-1.7,3.4-3.7,4.7-5.8-5.4,15.7-20.8,25.7-37.7,24.8-19.2-1.1-34.6-16.4-35.3-35.4v-2.7c.6-18.2,14.9-33.1,33.2-35.2,17.6-1.9,34.4,8.4,40,25"></path><path class="cls-9" d="M82.7,28.9c10.9-.4,20,6,25.6,14.2-5.2-5.8-13.3-9.9-22-9.9-14.8,0-26.9,11.3-26.9,25.3s12.2,24.4,27.2,24.4,14.4-2.7,19.2-7.3c-5.8,6.9-13.7,10.8-22.9,10.8-16.1,0-29.1-12.6-29.4-28.4,0-16.2,13.1-29.1,29.2-29.1"></path></g><g><path class="cls-6" d="M195.4,197.4c.7-.2,1.9-.3,3.1-.3s2.8.3,3.6.9c.6.5,1.1,1.3,1.1,2.3s-.8,2.4-2.2,2.9h0c1.3.4,2.7,1.4,2.7,3.3s-.5,2-1.1,2.7c-.9.8-2.4,1.2-4.5,1.2s-2,0-2.7-.2v-12.9h0ZM197,202.8h1.6c1.7,0,2.9-.9,2.9-2.2s-1.2-2.1-2.9-2.1-1.2,0-1.5,0v4.2h0ZM197,209.1h1.4c1.7,0,3.4-.6,3.4-2.6s-1.6-2.5-3.4-2.5h-1.4v5h0Z"></path><path class="cls-6" d="M217.5,203.6c0,4.5-2.8,6.9-6.1,6.9s-5.9-2.7-5.9-6.6,2.6-6.9,6.1-6.9,5.9,2.8,5.9,6.6ZM207.4,203.8c0,2.8,1.5,5.3,4.1,5.3s4.2-2.5,4.2-5.4-1.4-5.3-4.1-5.3-4.2,2.6-4.2,5.4Z"></path><path class="cls-6" d="M220.2,197.2h1.7v11.7h5.6v1.4h-7.3v-13.1Z"></path><path class="cls-6" d="M229.6,197.4c1-.2,2.3-.3,3.6-.3,2.4,0,4.1.6,5.3,1.7s1.8,2.6,1.8,4.7-.6,3.9-1.8,5.1-3.2,1.8-5.8,1.8-2.2,0-3-.2v-12.9h0ZM231.4,209c.5,0,1,0,1.7,0,3.6,0,5.6-2,5.6-5.5s-1.7-5.1-5.3-5.1-1.6,0-2,.2v10.3Z"></path><path class="cls-6" d="M247,208.3c.7.5,1.8.8,3,.8,1.7,0,2.8-.9,2.8-2.2s-.7-1.9-2.5-2.6c-2.1-.7-3.5-1.8-3.5-3.7s1.7-3.6,4.2-3.6,2.3.3,2.9.6l-.5,1.4c-.5-.3-1.3-.6-2.5-.6-1.7,0-2.5,1.1-2.5,1.9s.8,1.8,2.6,2.5c2.2.8,3.3,1.9,3.3,3.9s-1.5,3.8-4.6,3.8-2.7-.4-3.3-.8l.5-1.4h0Z"></path><path class="cls-6" d="M258.8,197.2v7.7c0,2.9,1.3,4.1,3,4.1s3.2-1.3,3.2-4.1v-7.7h1.7v7.6c0,4.1-2.1,5.7-5,5.7s-4.7-1.6-4.7-5.6v-7.7h1.7,0Z"></path><path class="cls-6" d="M270.1,197.4c.8,0,1.8-.3,3.2-.3s2.9.4,3.7,1.1c.7.6,1.1,1.6,1.1,2.8s-.4,2.1-1,2.8c-.9.9-2.4,1.5-4.1,1.5s-1,0-1.4,0v5.2h-1.7v-13h0ZM271.8,203.7c.4,0,.8,0,1.4,0,2,0,3.3-1,3.3-2.8s-1.2-2.6-3.1-2.6-1.3,0-1.6,0v5.1h0Z"></path><path class="cls-6" d="M280.9,197.4c.8,0,1.8-.3,3.2-.3s2.9.4,3.7,1.1c.7.6,1.1,1.6,1.1,2.8s-.4,2.1-1,2.8c-.9.9-2.4,1.5-4.1,1.5s-1,0-1.4,0v5.2h-1.7v-13h0ZM282.5,203.7c.4,0,.8,0,1.4,0,2,0,3.3-1,3.3-2.8s-1.2-2.6-3.1-2.6-1.3,0-1.6,0v5.1h0Z"></path><path class="cls-6" d="M302.8,203.6c0,4.5-2.8,6.9-6.1,6.9s-5.9-2.7-5.9-6.6,2.6-6.9,6.1-6.9,5.9,2.8,5.9,6.6ZM292.6,203.8c0,2.8,1.5,5.3,4.1,5.3s4.2-2.5,4.2-5.4-1.4-5.3-4.1-5.3-4.2,2.6-4.2,5.4Z"></path><path class="cls-6" d="M305.4,197.4c.8-.2,2.1-.3,3.2-.3,1.8,0,2.9.4,3.8,1.1.6.6,1,1.5,1,2.5,0,1.7-1.1,2.9-2.5,3.3h0c1,.4,1.7,1.4,1.9,2.7.5,1.8.7,3.1,1,3.6h-1.7c-.2-.4-.5-1.5-.9-3.1-.4-1.8-1.1-2.5-2.7-2.6h-1.6v5.7h-1.7v-13h0ZM307.1,203.4h1.7c1.8,0,2.9-1,2.9-2.5s-1.2-2.4-3-2.5c-.8,0-1.4,0-1.7.2v4.8h0Z"></path><path class="cls-6" d="M318.9,198.7h-4v-1.5h9.7v1.5h-4.1v11.7h-1.7v-11.7h0Z"></path><path class="cls-6" d="M332.3,197.2v13.1h-1.7v-13.1h1.7Z"></path><path class="cls-6" d="M335.6,210.4v-13.1h1.8l4.2,6.6c1,1.6,1.7,2.9,2.4,4.2h0c-.2-1.7-.2-3.4-.2-5.4v-5.5h1.6v13.1h-1.7l-4.1-6.6c-.9-1.5-1.7-2.9-2.5-4.4h0c0,1.7,0,3.2,0,5.4v5.6h-1.6Z"></path><path class="cls-6" d="M355.1,206.2l-1.4,4.1h-1.7l4.4-13.1h2l4.5,13.1h-1.8l-1.4-4.1h-4.7,0ZM359.4,204.9l-1.3-3.8c-.3-.8-.5-1.7-.6-2.4h0c-.2.7-.4,1.6-.6,2.4l-1.3,3.8h4,0Z"></path><path class="cls-6" d="M365.3,197.2h1.7v11.7h5.6v1.4h-7.3v-13.1Z"></path><path class="cls-6" d="M374.9,197.2h1.7v11.7h5.6v1.4h-7.3v-13.1Z"></path><path class="cls-6" d="M397.7,209.9c-.6.3-1.8.6-3.5.6-3.7,0-6.4-2.3-6.4-6.6s2.8-6.9,6.8-6.9,2.7.4,3.1.6l-.4,1.4c-.6-.3-1.6-.6-2.7-.6-3,0-5.2,1.9-5.2,5.4s1.8,5.2,5.1,5.2,2.1-.2,2.8-.6l.4,1.4h0Z"></path><path class="cls-6" d="M411,203.6c0,4.5-2.8,6.9-6.1,6.9s-5.9-2.7-5.9-6.6,2.6-6.9,6.1-6.9,5.9,2.8,5.9,6.6h0ZM400.8,203.8c0,2.8,1.5,5.3,4.1,5.3s4.2-2.5,4.2-5.4-1.4-5.3-4.1-5.3-4.2,2.6-4.2,5.4h0Z"></path><path class="cls-6" d="M413.6,197.2h1.7v11.7h5.6v1.4h-7.3v-13.1h0Z"></path><path class="cls-6" d="M433.6,203.6c0,4.5-2.8,6.9-6.1,6.9s-5.9-2.7-5.9-6.6,2.6-6.9,6.1-6.9,5.9,2.8,5.9,6.6ZM423.4,203.8c0,2.8,1.5,5.3,4.1,5.3s4.2-2.5,4.2-5.4-1.4-5.3-4.1-5.3-4.2,2.6-4.2,5.4Z"></path><path class="cls-6" d="M436.2,197.4c.8-.2,2.1-.3,3.2-.3,1.8,0,2.9.4,3.8,1.1.6.6,1,1.5,1,2.5,0,1.7-1.1,2.9-2.5,3.3h0c1,.4,1.7,1.4,1.9,2.7.5,1.8.7,3.1,1,3.6h-1.7c-.2-.4-.5-1.5-.9-3.1-.4-1.8-1.1-2.5-2.7-2.6h-1.6v5.7h-1.7v-13h0ZM437.9,203.4h1.7c1.8,0,2.9-1,2.9-2.5s-1.2-2.4-3-2.5c-.8,0-1.4,0-1.7.2v4.8h0Z"></path><path class="cls-6" d="M446.8,208.3c.7.5,1.8.8,3,.8,1.7,0,2.8-.9,2.8-2.2s-.7-1.9-2.5-2.6c-2.1-.7-3.5-1.8-3.5-3.7s1.7-3.6,4.2-3.6,2.3.3,2.9.6l-.5,1.4c-.5-.3-1.3-.6-2.5-.6-1.7,0-2.5,1.1-2.5,1.9s.8,1.8,2.6,2.5c2.2.8,3.3,1.9,3.3,3.9s-1.5,3.8-4.6,3.8-2.7-.4-3.3-.8l.5-1.4h0Z"></path></g></g></g></g></g></svg>